<?xml version="1.0" standalone="no"?>
<!DOCTYPE svg PUBLIC "-//W3C//DTD SVG 20010904//EN"
 "http://www.w3.org/TR/2001/REC-SVG-20010904/DTD/svg10.dtd">
<svg version="1.0" xmlns="http://www.w3.org/2000/svg"
 width="500.000000pt" height="709.000000pt" viewBox="0 0 500.000000 709.000000"
 preserveAspectRatio="xMidYMid meet">

<g transform="translate(0.000000,709.000000) scale(0.100000,-0.100000)"
fill="#000000" stroke="none">
<path d="M2034 7080 c-11 -4 -34 -25 -51 -47 -27 -34 -542 -746 -603 -833 -28
-39 -33 -102 -10 -124 14 -14 621 -274 728 -312 87 -31 63 -58 422 485 222
336 235 364 201 405 -12 14 -430 312 -575 410 -39 26 -74 32 -112 16z"/>
<path d="M2850 6487 c-15 -8 -116 -151 -267 -381 -206 -313 -243 -375 -243
-406 0 -22 7 -43 18 -53 9 -8 105 -55 212 -103 107 -48 207 -96 223 -106 62
-44 67 -86 42 -372 -8 -93 -12 -173 -9 -178 3 -4 11 -8 19 -8 12 0 439 538
696 876 87 115 96 145 57 187 -25 27 -543 460 -621 520 -51 39 -85 45 -127 24z"/>
<path d="M1105 6006 c-16 -7 -40 -24 -52 -37 -41 -45 -1003 -1404 -1025 -1449
-19 -36 -23 -62 -23 -131 0 -79 3 -92 35 -155 20 -38 330 -500 689 -1028 360
-527 663 -981 674 -1010 18 -43 21 -72 21 -191 0 -129 -12 -212 -142 -1062
-78 -507 -142 -927 -142 -933 0 -7 422 -10 1341 -10 l1341 0 -3 868 -4 867 28
80 c35 104 66 155 254 408 329 445 459 672 556 973 54 166 62 225 62 454 0
177 -2 209 -18 237 -20 38 -55 50 -89 32 -31 -16 -90 -62 -426 -327 -356 -281
-343 -272 -404 -272 l-50 0 -152 148 c-226 220 -381 334 -609 451 -213 109
-427 179 -670 221 -184 31 -204 26 -176 -43 7 -17 257 -438 556 -935 298 -496
545 -913 548 -925 9 -34 -12 -46 -93 -53 -78 -7 -114 -30 -126 -79 -3 -13 -40
-444 -81 -956 -46 -568 -79 -937 -86 -945 -13 -16 -76 -18 -98 -5 -16 10 -23
-95 85 1230 30 370 52 683 48 695 -14 45 -33 56 -104 56 -72 0 -104 15 -99 45
2 11 46 49 97 85 52 36 98 73 104 84 6 10 10 44 11 76 0 69 30 15 -426 790
-503 858 -498 850 -570 916 -82 77 -119 96 -408 209 -134 53 -250 102 -257
109 -23 23 10 42 117 66 122 28 142 45 148 122 3 43 -4 77 -41 182 -25 71 -43
133 -40 138 13 21 50 -1 189 -117 177 -147 214 -165 355 -172 114 -6 588 47
647 72 39 17 88 57 104 87 12 22 39 279 39 368 0 59 -4 73 -26 100 -36 42 -83
64 -624 300 -256 112 -556 243 -668 291 -214 94 -254 103 -317 75z"/>
<path d="M3700 5748 c-18 -19 -778 -1015 -1042 -1366 -124 -163 -112 -193 97
-263 73 -24 202 -79 295 -126 155 -78 168 -83 198 -72 24 8 162 159 540 587
279 318 517 590 530 606 14 18 22 43 22 68 0 37 -9 48 -272 314 -260 262 -275
274 -310 274 -26 0 -44 -7 -58 -22z"/>
<path d="M4444 5030 c-16 -6 -700 -758 -1031 -1133 -60 -67 -55 -75 133 -260
194 -190 221 -211 256 -202 14 4 263 200 554 437 663 539 644 523 644 556 0
21 -46 81 -191 252 -307 362 -315 370 -365 350z"/>
<path d="M2320 4634 c-166 -26 -401 -44 -572 -44 -114 0 -117 -1 -137 -26 -34
-44 -4 -78 116 -128 187 -79 486 -156 607 -156 50 0 60 4 90 33 52 49 196 256
196 281 0 12 -9 32 -20 44 -27 28 -83 28 -280 -4z"/>
</g>
</svg>
